<svg xmlns="http://www.w3.org/2000/svg" width="12.125" height="11.733" viewBox="0 0 12.125 11.733">
  <defs>
    <style>
      .cls-1 {
        fill: #245ff2;
      }
    </style>
  </defs>
  <path id="企业动态" class="cls-1" d="M9.193,3.145H8.8A5.866,5.866,0,0,0,2.934,9.011v4.916a.95.95,0,0,0,.95.95H9.068a5.948,5.948,0,0,0,5.988-5.688A5.873,5.873,0,0,0,9.193,3.145Zm1.345,7.272a.475.475,0,0,1-.475.475H6.408a.475.475,0,0,1,0-.95h3.655A.475.475,0,0,1,10.538,10.417Zm1.048-2.336H6.408a.475.475,0,0,1,0-.95h5.178a.475.475,0,1,1,0,.95Z" transform="translate(-2.934 -3.145)"/>
</svg>
